<?xml version="1.0" encoding="UTF-8" standalone="no"?>
<svg
   xmlns:dc="http://purl.org/dc/elements/1.1/"
   xmlns:cc="http://creativecommons.org/ns#"
   xmlns:rdf="http://www.w3.org/1999/02/22-rdf-syntax-ns#"
   xmlns:svg="http://www.w3.org/2000/svg"
   xmlns="http://www.w3.org/2000/svg"
   xmlns:sodipodi="http://sodipodi.sourceforge.net/DTD/sodipodi-0.dtd"
   xmlns:inkscape="http://www.inkscape.org/namespaces/inkscape"
   width="1em"
   height="1em"
   viewBox="0 0 62 22"
   fill="none"
   version="1.1"
   id="svg141"
   sodipodi:docname="logo-text.svg"
   inkscape:version="0.92.5 (2060ec1f9f, 2020-04-08)">
  <metadata
     id="metadata145">
    <rdf:RDF>
      <cc:Work
         rdf:about="">
        <dc:format>image/svg+xml</dc:format>
        <dc:type
           rdf:resource="http://purl.org/dc/dcmitype/StillImage" />
      </cc:Work>
    </rdf:RDF>
  </metadata>
  <sodipodi:namedview
     pagecolor="#ffffff"
     bordercolor="#666666"
     borderopacity="1"
     objecttolerance="10"
     gridtolerance="10"
     guidetolerance="10"
     inkscape:pageopacity="0"
     inkscape:pageshadow="2"
     inkscape:window-width="1920"
     inkscape:window-height="1043"
     id="namedview143"
     showgrid="false"
     inkscape:zoom="11.919355"
     inkscape:cx="48.587584"
     inkscape:cy="11"
     inkscape:window-x="1280"
     inkscape:window-y="0"
     inkscape:window-maximized="1"
     inkscape:current-layer="svg141" />
  <defs
     id="defs139">
    <filter
       id="filter0_d"
       x="0.5"
       y="0.333344"
       width="61.1902"
       height="20.95"
       filterUnits="userSpaceOnUse"
       color-interpolation-filters="sRGB">
      <feFlood
         flood-opacity="0"
         result="BackgroundImageFix"
         id="feFlood124" />
      <feColorMatrix
         in="SourceAlpha"
         type="matrix"
         values="0 0 0 0 0 0 0 0 0 0 0 0 0 0 0 0 0 0 127 0"
         id="feColorMatrix126" />
      <feOffset
         dy="4"
         id="feOffset128" />
      <feGaussianBlur
         stdDeviation="2"
         id="feGaussianBlur130" />
      <feColorMatrix
         type="matrix"
         values="0 0 0 0 0 0 0 0 0 0 0 0 0 0 0 0 0 0 0.25 0"
         id="feColorMatrix132" />
      <feBlend
         mode="normal"
         in2="BackgroundImageFix"
         result="effect1_dropShadow"
         id="feBlend134" />
      <feBlend
         mode="normal"
         in="SourceGraphic"
         in2="effect1_dropShadow"
         result="shape"
         id="feBlend136" />
    </filter>
  </defs>
  <g
     inkscape:groupmode="layer"
     id="layer1"
     inkscape:label="Layer 1" />
  <g
     id="g970">
    <g
       aria-label="Jinv.ru"
       style="font-style:normal;font-weight:normal;font-size:18.66666603px;line-height:1.25;font-family:sans-serif;letter-spacing:0px;word-spacing:0px;fill:#000000;fill-opacity:1;stroke:none"
       id="text168">
      <path
         id="path984"
         style="font-style:normal;font-variant:normal;font-weight:bold;font-stretch:normal;font-size:16px;line-height:1;font-family:sans-serif;-inkscape-font-specification:'sans-serif Bold'"
         d="M 50.443864,12.301463 V 6.9577131 h 2.8125 v 0.875 q 0,0.7109375 -0.0078,1.7890625 -0.0078,1.0703124 -0.0078,1.4296874 0,1.054688 0.05469,1.523438 0.05469,0.460937 0.1875,0.671875 0.171875,0.273437 0.445312,0.421875 0.28125,0.148437 0.640625,0.148437 0.875,0 1.375,-0.671875 0.5,-0.671875 0.5,-1.867187 V 6.9577131 h 2.796875 v 8.7499999 h -2.796875 v -1.265625 q -0.632812,0.765625 -1.34375,1.132813 -0.703125,0.359375 -1.554687,0.359375 -1.515625,0 -2.3125,-0.929688 -0.789063,-0.929687 -0.789063,-2.703125 z M 49.146989,9.3405256 q -0.367187,-0.171875 -0.734375,-0.25 -0.359375,-0.085937 -0.726562,-0.085937 -1.078125,0 -1.664063,0.6953125 -0.578125,0.6874999 -0.578125,1.9765629 v 4.03125 H 42.646989 V 6.9577131 h 2.796875 v 1.4375 q 0.539063,-0.859375 1.234375,-1.25 0.703125,-0.3984375 1.679688,-0.3984375 0.140625,0 0.304687,0.015625 0.164063,0.00781 0.476563,0.046875 z M 36.857927,12.684276 h 2.8125 v 3.023437 h -2.8125 z M 26.342302,6.9577131 h 2.796875 l 2.179687,6.0468749 2.171875,-6.0468749 h 2.804688 l -3.445313,8.7499999 h -3.070312 z m -1.492188,3.4218749 v 5.328125 h -2.8125 v -0.867187 -3.210938 q 0,-1.132812 -0.05469,-1.5625 -0.04687,-0.4296874 -0.171875,-0.6328124 -0.164063,-0.2734375 -0.445313,-0.421875 -0.28125,-0.15625 -0.640625,-0.15625 -0.875,0 -1.375,0.6796875 -0.5,0.6718749 -0.5,1.8671879 v 4.304687 H 16.053239 V 6.9577131 h 2.796875 v 1.28125 q 0.632813,-0.765625 1.34375,-1.125 0.710938,-0.3671875 1.570313,-0.3671875 1.515625,0 2.296875,0.9296875 0.789062,0.9296875 0.789062,2.7031249 z M 10.568864,6.9577131 h 2.796875 v 8.7499999 h -2.796875 z m 0,-3.40625 h 2.796875 v 2.28125 H 10.568864 Z M 4.7407391,4.0436506 H 7.7485516 V 14.574901 q 0,2.179687 -1.1875,3.257812 -1.1796875,1.078125 -3.578125,1.078125 h -0.609375 v -2.273437 h 0.46875 q 0.9375,0 1.4140625,-0.523438 0.484375,-0.523437 0.484375,-1.539062 z" />
    </g>
  </g>
</svg>
