<?xml version="1.0" encoding="UTF-8" standalone="no"?>
<!-- Created with Inkscape (http://www.inkscape.org/) -->

<svg
   xmlns:dc="http://purl.org/dc/elements/1.1/"
   xmlns:cc="http://creativecommons.org/ns#"
   xmlns:rdf="http://www.w3.org/1999/02/22-rdf-syntax-ns#"
   xmlns:svg="http://www.w3.org/2000/svg"
   xmlns="http://www.w3.org/2000/svg"
   xmlns:sodipodi="http://sodipodi.sourceforge.net/DTD/sodipodi-0.dtd"
   xmlns:inkscape="http://www.inkscape.org/namespaces/inkscape"
   width="1em"
   height="1em"
   viewBox="0 0 113.49984 113.49984"
   version="1.1"
   id="svg8"
   inkscape:version="0.92.5 (2060ec1f9f, 2020-04-08)"
   sodipodi:docname="logo.svg">
  <defs
     id="defs2" />
  <sodipodi:namedview
     id="base"
     pagecolor="#ffffff"
     bordercolor="#666666"
     borderopacity="1.0"
     inkscape:pageopacity="0.0"
     inkscape:pageshadow="2"
     inkscape:zoom="11.2"
     inkscape:cx="25.220998"
     inkscape:cy="22.99863"
     inkscape:document-units="px"
     inkscape:current-layer="layer1"
     showgrid="false"
     units="px"
     inkscape:pagecheckerboard="false"
     scale-x="2.36458"
     inkscape:showpageshadow="false"
     inkscape:window-width="1280"
     inkscape:window-height="960"
     inkscape:window-x="0"
     inkscape:window-y="27"
     inkscape:window-maximized="1"
     showguides="false" />
  <metadata
     id="metadata5">
    <rdf:RDF>
      <cc:Work
         rdf:about="">
        <dc:format>image/svg+xml</dc:format>
        <dc:type
           rdf:resource="http://purl.org/dc/dcmitype/StillImage" />
        <dc:title />
      </cc:Work>
    </rdf:RDF>
  </metadata>
  <g
     inkscape:label="Layer 1"
     inkscape:groupmode="layer"
     id="layer1"
     transform="translate(0,-284.3)"
     style="display:inline">
    <g
       id="g1129"
       transform="matrix(1,0,0,1.001866,0,-0.74167147)"
       inkscape:export-filename="/home/mistery/aaa/logo-origin2/icon64.png"
       inkscape:export-xdpi="128.17023"
       inkscape:export-ydpi="128.17023">
      <path
         style="color:#000000;font-style:normal;font-variant:normal;font-weight:normal;font-stretch:normal;font-size:medium;line-height:normal;font-family:sans-serif;font-variant-ligatures:normal;font-variant-position:normal;font-variant-caps:normal;font-variant-numeric:normal;font-variant-alternates:normal;font-feature-settings:normal;text-indent:0;text-align:start;text-decoration:none;text-decoration-line:none;text-decoration-style:solid;text-decoration-color:#000000;letter-spacing:normal;word-spacing:normal;text-transform:none;writing-mode:lr-tb;direction:ltr;text-orientation:mixed;dominant-baseline:auto;baseline-shift:baseline;text-anchor:start;white-space:normal;shape-padding:0;clip-rule:nonzero;display:inline;overflow:visible;visibility:visible;opacity:1;isolation:auto;mix-blend-mode:normal;color-interpolation:sRGB;color-interpolation-filters:linearRGB;solid-color:#000000;solid-opacity:1;vector-effect:none;fill:#6161ff;fill-opacity:1;fill-rule:nonzero;stroke:none;stroke-width:11.82289982;stroke-linecap:butt;stroke-linejoin:miter;stroke-miterlimit:4;stroke-dasharray:none;stroke-dashoffset:0;stroke-opacity:1;color-rendering:auto;image-rendering:auto;shape-rendering:auto;text-rendering:auto;enable-background:accumulate"
         d="M 56.792969,284.32148 C 31.519611,283.86744 7.5910079,302.68373 1.8333725,327.2635 c -5.5589083,21.73268 3.2405061,46.26484 21.5400585,59.31369 17.983532,13.3609 44.019443,14.63339 62.998213,2.5748 18.626866,-11.3419 29.704406,-33.9401 26.568916,-55.61933 -2.83956,-22.49234 -20.315495,-42.33794 -42.45658,-47.53232 -4.472068,-1.11655 -9.081376,-1.68548 -13.691011,-1.67886 z m 0,11.82227 c 21.420422,-0.51476 41.475579,16.70909 44.294921,37.94424 3.24005,19.70425 -8.34474,40.74995 -26.969143,48.17375 -18.4497,7.86548 -41.80635,1.65784 -53.468102,-14.7986 -12.3055493,-16.44144 -11.3107993,-41.40895 2.787818,-56.48932 8.37082,-9.33572 20.793016,-14.95109 33.354506,-14.83007 z"
         id="path881"
         inkscape:connector-curvature="0" />
      <g
         id="text886"
         style="font-style:normal;font-variant:normal;font-weight:bold;font-stretch:normal;font-size:89.61677551px;line-height:1.25;font-family:sans-serif;-inkscape-font-specification:'sans-serif Bold';letter-spacing:0px;word-spacing:0px;display:inline;fill:#6161ff;fill-opacity:1;stroke:none;stroke-width:4.80009747;stroke-miterlimit:4;stroke-dasharray:none;stroke-opacity:1"
         transform="matrix(1.0184845,0,0,0.98185099,0,284.3)"
         aria-label="J">
        <path
           style="fill:#6161ff;fill-opacity:1;stroke:none;stroke-width:4.80009747;stroke-miterlimit:4;stroke-dasharray:none;stroke-opacity:1"
           d="m 50.417897,15.092582 c 5.615634,0 11.231269,0 16.846903,0 -0.17806,21.454572 0.369287,42.933347 -0.298357,64.372579 C 65.99249,88.335421 59.010189,96.204916 50.034242,97.449034 46.449908,97.25147 37.6187,100.9305 37.159165,96.443593 c 0,-3.604269 0,-7.208538 0,-10.812807 5.741706,0.870813 12.914871,-2.051768 12.956742,-8.735717 0.635916,-9.019448 0.1613,-18.096383 0.30199,-27.144505 0,-11.55266 0,-23.105321 0,-34.657982 z"
           id="path1123"
           inkscape:connector-curvature="0" />
      </g>
    </g>
  </g>
</svg>
