<?xml version="1.0" encoding="utf-8"?>
<svg xmlns="http://www.w3.org/2000/svg">
<symbol id="auto-mode" viewBox="0 0 20 20"><path fill="none" d="M0 0h20v20H0z"/><path d="M15.81 3.13a8.938 8.938 0 0 0-5.06-2.09v1.5c1.51.15 2.88.75 3.99 1.66l1.07-1.07zM10 17.5c-2.66 0-4.98-1.41-6.31-3.5h2.06v-1.5H1v4.75h1.5v-2.29C4.11 17.39 6.86 19 10 19c4.01 0 7.41-2.63 8.57-6.25l-1.47-.34c-1.01 2.95-3.81 5.09-7.1 5.09zM9.25 2.54v-1.5c-1.92.15-3.67.92-5.05 2.1L5.26 4.2a7.437 7.437 0 0 1 3.99-1.66zM4.2 5.26 3.14 4.2a8.919 8.919 0 0 0-2.1 5.05h1.5c.15-1.51.75-2.88 1.66-3.99z"/><path d="m6 10 2.75 1.25L10 14l1.25-2.75L14 10l-2.75-1.25L10 6 8.75 8.75zM17.46 9.25h1.51a8.949 8.949 0 0 0-2.1-5.06L15.8 5.26a7.437 7.437 0 0 1 1.66 3.99z"/>
</symbol>
<symbol id="dark-mode" viewBox="0 0 20 20"><path fill="none" d="M0 0h20v20H0z"/><path d="M8.04 4.86a5.71 5.71 0 0 0 7.1 7.1A5.509 5.509 0 0 1 10 15.5 5.51 5.51 0 0 1 4.5 10c0-2.34 1.47-4.35 3.54-5.14zM10 3c-3.87 0-7 3.13-7 7s3.13 7 7 7a6.995 6.995 0 0 0 6.92-8.06 4.2 4.2 0 1 1-5.86-5.86C10.72 3.03 10.36 3 10 3z"/>
</symbol>
<symbol id="email" viewBox="0 0 24 24"><path fill="none" d="M0 0h24v24H0V0z"/><path d="M20 4H4c-1.1 0-1.99.9-1.99 2L2 18c0 1.1.9 2 2 2h16c1.1 0 2-.9 2-2V6c0-1.1-.9-2-2-2zm-.4 4.25-7.07 4.42c-.32.2-.74.2-1.06 0L4.4 8.25a.85.85 0 1 1 .9-1.44L12 11l6.7-4.19a.85.85 0 1 1 .9 1.44z"/>
</symbol>
<symbol id="light-mode" viewBox="0 0 20 20"><path fill="none" d="M0 0h20v20H0z"/><path d="M10 7.5a2.5 2.5 0 0 1 0 5 2.5 2.5 0 0 1 0-5zM10 6c-2.21 0-4 1.79-4 4s1.79 4 4 4 4-1.79 4-4-1.79-4-4-4zm-6.25 4.75c.41 0 .75-.34.75-.75s-.34-.75-.75-.75h-2c-.41 0-.75.34-.75.75s.34.75.75.75h2zm14.5 0c.41 0 .75-.34.75-.75s-.34-.75-.75-.75h-2c-.41 0-.75.34-.75.75s.34.75.75.75h2zm-9-7c0 .41.34.75.75.75s.75-.34.75-.75v-2c0-.41-.34-.75-.75-.75s-.75.34-.75.75v2zm4.64 1.3c-.29.29-.29.77 0 1.06s.77.29 1.06 0l1.06-1.06c.29-.29.29-.77 0-1.06a.754.754 0 0 0-1.06 0l-1.06 1.06zm-9.9 9.9c-.29.29-.29.77 0 1.06s.77.29 1.06 0l1.06-1.06c.29-.29.29-.77 0-1.06a.754.754 0 0 0-1.06 0l-1.06 1.06zm1.06-8.84c.29.29.77.29 1.06 0s.29-.77 0-1.06L5.05 3.99c-.29-.29-.77-.29-1.06 0s-.29.77 0 1.06l1.06 1.06zm9.9 9.9c.29.29.77.29 1.06 0s.29-.77 0-1.06l-1.06-1.06a.754.754 0 0 0-1.06 0c-.29.29-.29.77 0 1.06l1.06 1.06zm-5.7 2.24c0 .41.34.75.75.75s.75-.34.75-.75v-2c0-.41-.34-.75-.75-.75s-.75.34-.75.75v2z"/>
</symbol>
<symbol id="logo" viewBox="0 0 37.835 12.7"><g style="display:inline"><g aria-label="inv.ru" style="font-style:normal;font-variant:normal;font-weight:700;font-stretch:normal;font-size:8.46666622px;line-height:1;font-family:sans-serif;-inkscape-font-specification:&quot;sans-serif Bold&quot;;letter-spacing:0;word-spacing:0;fill:#6161ff;fill-opacity:1;stroke:none;stroke-width:.26417112"><path d="M101.407 54.729h1.48v4.63h-1.48zm0-1.802h1.48v1.207h-1.48zM108.964 56.54v2.82h-1.488V57.2q0-.6-.029-.827-.025-.227-.09-.334-.087-.145-.236-.224-.15-.082-.34-.082-.462 0-.727.36-.264.355-.264.987v2.278h-1.48v-4.63h1.48v.678q.334-.405.71-.595.377-.195.832-.195.802 0 1.215.492.418.492.418 1.43zM109.754 54.729h1.48l1.153 3.2 1.15-3.2h1.484l-1.823 4.63h-1.625zM115.319 57.76h1.488v1.6h-1.488zM121.822 55.99q-.195-.091-.39-.132-.19-.046-.384-.046-.57 0-.88.368-.306.364-.306 1.046v2.133h-1.48v-4.63h1.48v.76q.285-.454.653-.66.372-.212.889-.212.074 0 .161.009.087.004.252.024zM122.508 57.557v-2.828h1.488v.463q0 .376-.004.947-.004.566-.004.756 0 .558.029.806.029.244.1.356.09.145.235.223.149.079.339.079.463 0 .727-.356.265-.355.265-.988V54.73h1.48v4.63h-1.48v-.67q-.335.406-.711.6-.372.19-.823.19-.802 0-1.223-.492-.418-.492-.418-1.43z" style="font-size:8.46666622px;line-height:1;fill:#6161ff;fill-opacity:1;stroke-width:.26417112" transform="matrix(.9304 0 0 1.08153 -80.517 -54.889)"/></g><g style="display:inline"><g style="display:inline"><path d="M107.462 56.602a50.67 50.67 0 0 1-50.67 50.67 50.67 50.67 0 0 1-50.67-50.67 50.67 50.67 0 0 1 50.67-50.67 50.67 50.67 0 0 1 50.67 50.67Z" style="fill:none;fill-opacity:1;stroke:#6161ff;stroke-width:11.82289982;stroke-miterlimit:4;stroke-dasharray:none;stroke-opacity:1" transform="matrix(.11224 0 0 .11224 .078 -.003)"/></g><g style="display:inline"><g aria-label="J" style="font-style:normal;font-variant:normal;font-weight:700;font-stretch:normal;font-size:89.61677551px;line-height:0;font-family:sans-serif;-inkscape-font-specification:&quot;sans-serif Bold&quot;;letter-spacing:0;word-spacing:0;fill:#6161ff;fill-opacity:1;stroke:none;stroke-width:4.80009747;stroke-miterlimit:4;stroke-dasharray:none;stroke-opacity:1"><path d="M50.418 15.093h16.847v58.986q0 12.208-6.651 18.247-6.608 6.038-20.042 6.038H37.16V85.631h2.626q5.25 0 7.92-2.932 2.713-2.932 2.713-8.62z" style="line-height:0;fill:#6161ff;fill-opacity:1;stroke:none;stroke-width:4.80009747;stroke-miterlimit:4;stroke-dasharray:none;stroke-opacity:1" transform="matrix(.11432 0 0 .1102 .078 -.003)"/></g></g></g></g>
</symbol>
<symbol id="phone"><rect width="50" height="50" fill="url(#a)" rx="25"/><g fill="#000" clip-path="url(#b)" filter="url(#c)"><path d="M33.675 23.652c.027-3.243-2.735-6.216-6.157-6.627-.068-.008-.142-.02-.22-.033a3.199 3.199 0 0 0-.522-.057c-.701 0-.889.493-.938.786-.048.286-.003.526.136.714.232.316.64.372.969.417.096.013.187.025.263.042 3.075.688 4.11 1.768 4.616 4.816.012.075.018.167.024.264.022.364.068 1.123.883 1.123.068 0 .14-.006.217-.018.759-.115.735-.808.724-1.141-.004-.094-.007-.183.001-.242a.336.336 0 0 0 .004-.044Z"/><path d="M26.577 15.835c.091.006.177.013.249.024 5.05.776 7.371 3.168 8.015 8.257.01.087.012.192.014.304.007.397.02 1.225.908 1.242h.028c.278 0 .5-.084.658-.25.277-.29.258-.719.242-1.064-.004-.085-.008-.165-.007-.234.065-5.205-4.44-9.924-9.64-10.1-.022 0-.042 0-.063.004a.431.431 0 0 1-.062.003c-.052 0-.115-.004-.183-.009-.082-.006-.174-.012-.268-.012-.828 0-.986.589-1.006.94-.046.81.738.867 1.115.895ZM34.597 30.693a15.918 15.918 0 0 1-.322-.25c-.551-.444-1.138-.853-1.705-1.249l-.353-.246c-.726-.51-1.38-.758-1.997-.758-.831 0-1.556.459-2.154 1.365-.265.401-.586.596-.982.596-.235 0-.501-.067-.792-.198-2.345-1.064-4.02-2.694-4.977-4.847-.463-1.04-.313-1.72.502-2.274.462-.314 1.323-.898 1.262-2.018-.069-1.27-2.873-5.096-4.055-5.53a2.302 2.302 0 0 0-1.566-.004c-1.358.456-2.333 1.258-2.82 2.319-.469 1.025-.448 2.228.062 3.48 1.474 3.619 3.547 6.774 6.16 9.378 2.559 2.549 5.703 4.636 9.346 6.205.329.141.673.218.924.275.086.019.16.035.214.05a.36.36 0 0 0 .09.013h.03c1.713 0 3.77-1.566 4.403-3.35.553-1.564-.458-2.336-1.27-2.957ZM27.335 19.969c-.294.007-.904.022-1.118.644-.1.29-.088.543.036.75.181.304.53.397.847.448 1.15.184 1.74.82 1.857 2 .055.55.426.934.901.934a.877.877 0 0 0 .107-.006c.573-.068.85-.489.825-1.25.009-.793-.407-1.695-1.113-2.413-.71-.72-1.564-1.126-2.342-1.107Z"/></g><defs><linearGradient id="a" x1="1.818" x2="54.987" y1="7.042" y2="12.91" gradientUnits="userSpaceOnUse"><stop stop-color="#FACD58"/><stop offset="1" stop-color="#EFBC3F"/></linearGradient><clipPath id="b"><path fill="#fff" d="M14 14h23v23H14z"/></clipPath><filter id="c" width="37" height="37" x="7" y="11" color-interpolation-filters="sRGB" filterUnits="userSpaceOnUse"><feFlood flood-opacity="0" result="BackgroundImageFix"/><feColorMatrix in="SourceAlpha" values="0 0 0 0 0 0 0 0 0 0 0 0 0 0 0 0 0 0 127 0"/><feOffset dy="4"/><feGaussianBlur stdDeviation="3.5"/><feColorMatrix values="0 0 0 0 0.933333 0 0 0 0 0.186667 0 0 0 0 0.353519 0 0 0 0.15 0"/><feBlend in2="BackgroundImageFix" result="effect1_dropShadow"/><feBlend in="SourceGraphic" in2="effect1_dropShadow" result="shape"/></filter></defs>
</symbol>
<symbol id="phone2" viewBox="0 0 24 24"><path fill="none" d="M0 0h24v24H0V0z"/><path d="m19.23 15.26-2.54-.29a1.99 1.99 0 0 0-1.64.57l-1.84 1.84a15.045 15.045 0 0 1-6.59-6.59l1.85-1.85c.43-.43.64-1.03.57-1.64l-.29-2.52a2.001 2.001 0 0 0-1.99-1.77H5.03c-1.13 0-2.07.94-2 2.07.53 8.54 7.36 15.36 15.89 15.89 1.13.07 2.07-.87 2.07-2v-1.73c.01-1.01-.75-1.86-1.76-1.98z"/>
</symbol>
<symbol id="telegram" viewBox="0 0 32 32"><path d="m29.919 6.163-4.225 19.925c-.319 1.406-1.15 1.756-2.331 1.094l-6.438-4.744-3.106 2.988c-.344.344-.631.631-1.294.631l.463-6.556L24.919 8.72c.519-.462-.113-.719-.806-.256l-14.75 9.288-6.35-1.988c-1.381-.431-1.406-1.381.288-2.044l24.837-9.569c1.15-.431 2.156.256 1.781 2.013z"/>
</symbol>
<symbol id="telegram2" viewBox="0 0 240 240"><linearGradient id="a" x1="-683.305" x2="-693.305" y1="534.845" y2="511.512" gradientTransform="matrix(6 0 0 -6 4255 3247)" gradientUnits="userSpaceOnUse"><stop offset="0" stop-color="#37aee2"/><stop offset="1" stop-color="#1e96c8"/></linearGradient><path d="M240 120c0 66.3-53.7 120-120 120S0 186.3 0 120 53.7 0 120 0s120 53.7 120 120z" style="fill:url(#a)"/><path d="M98 175c-3.9 0-3.2-1.5-4.6-5.2L82 132.2 152.8 88l8.3 2.2-6.9 18.8L98 175z" style="fill:#c8daea"/><path d="M98 175c3 0 4.3-1.4 6-3 2.6-2.5 36-35 36-35l-20.5-5-19 12-2.5 30v1z" style="fill:#a9c9dd"/><linearGradient id="b" x1="128.991" x2="153.991" y1="118.245" y2="78.245" gradientTransform="matrix(1 0 0 -1 0 242)" gradientUnits="userSpaceOnUse"><stop offset="0" stop-color="#eff7fc"/><stop offset="1" stop-color="#fff"/></linearGradient><path d="m100 144.4 48.4 35.7c5.5 3 9.5 1.5 10.9-5.1L179 82.2c2-8.1-3.1-11.7-8.4-9.3L55 117.5c-7.9 3.2-7.8 7.6-1.4 9.5l29.7 9.3L152 93c3.2-2 6.2-.9 3.8 1.3L100 144.4z" style="fill:url(#b)"/>
</symbol>
<symbol id="telegram3" viewBox="0 0 512 512"><rect width="512" height="512" fill="#37aee2" rx="15%"/><path fill="#c8daea" d="M199 404c-11 0-10-4-13-14l-32-105 245-144"/><path fill="#a9c9dd" d="M199 404c7 0 11-4 16-8l45-43-56-34"/><path fill="#f6fbfe" d="m204 319 135 99c14 9 26 4 30-14l55-258c5-22-9-32-24-25L79 245c-21 8-21 21-4 26l83 26 190-121c9-5 17-3 11 4"/>
</symbol>
<symbol id="vk" viewBox="0 0 24 14"><path d="M19.915 8.028c-.388-.49-.277-.708 0-1.146.005-.005 3.208-4.431 3.538-5.932l.002-.001c.164-.547 0-.949-.793-.949h-2.624c-.668 0-.976.345-1.141.731 0 0-1.336 3.198-3.226 5.271-.61.599-.892.791-1.225.791-.164 0-.419-.192-.419-.739V.949c0-.656-.187-.949-.74-.949H9.161c-.419 0-.668.306-.668.591 0 .622.945.765 1.043 2.515v3.797c0 .832-.151.985-.486.985-.892 0-3.057-3.211-4.34-6.886C4.451.289 4.198.001 3.525.001H.9c-.749 0-.9.345-.9.731 0 .682.892 4.073 4.148 8.553C6.318 12.343 9.374 14 12.154 14c1.671 0 1.875-.368 1.875-1.001 0-2.922-.151-3.198.686-3.198.388 0 1.056.192 2.616 1.667C19.114 13.217 19.407 14 20.405 14h2.624c.748 0 1.127-.368.909-1.094-.499-1.527-3.871-4.668-4.023-4.878z" style="fill:#4b729f"/>
</symbol>
<symbol id="whatsapp" viewBox="0 0 24 24"><g fill="none"><path d="M0 0h24v24H0z"/><path d="M0 0h24v24H0z"/></g><path d="M19.05 4.91A9.816 9.816 0 0 0 12.04 2c-5.46 0-9.91 4.45-9.91 9.91 0 1.75.46 3.45 1.32 4.95L2.05 22l5.25-1.38c1.45.79 3.08 1.21 4.74 1.21 5.46 0 9.91-4.45 9.91-9.91 0-2.65-1.03-5.14-2.9-7.01zm-7.01 15.24c-1.48 0-2.93-.4-4.2-1.15l-.3-.18-3.12.82.83-3.04-.2-.31a8.264 8.264 0 0 1-1.26-4.38c0-4.54 3.7-8.24 8.24-8.24 2.2 0 4.27.86 5.82 2.42a8.183 8.183 0 0 1 2.41 5.83c.02 4.54-3.68 8.23-8.22 8.23zm4.52-6.16c-.25-.12-1.47-.72-1.69-.81-.23-.08-.39-.12-.56.12-.17.25-.64.81-.78.97-.14.17-.29.19-.54.06-.25-.12-1.05-.39-1.99-1.23-.74-.66-1.23-1.47-1.38-1.72-.14-.25-.02-.38.11-.51.11-.11.25-.29.37-.43s.17-.25.25-.41c.08-.17.04-.31-.02-.43s-.56-1.34-.76-1.84c-.2-.48-.41-.42-.56-.43h-.48c-.17 0-.43.06-.66.31-.22.25-.86.85-.86 2.07 0 1.22.89 2.4 1.01 2.56.12.17 1.75 2.67 4.23 3.74.59.26 1.05.41 1.41.52.59.19 1.13.16 1.56.1.48-.07 1.47-.6 1.67-1.18.21-.58.21-1.07.14-1.18s-.22-.16-.47-.28z"/>
</symbol></svg>