<?xml version="1.0" encoding="utf-8"?>
<svg xmlns="http://www.w3.org/2000/svg">
<symbol id="email" viewBox="0 0 24 24"><path d="M0 0h24v24H0V0z" fill="none"/><path d="M20 4H4c-1.1 0-1.99.9-1.99 2L2 18c0 1.1.9 2 2 2h16c1.1 0 2-.9 2-2V6c0-1.1-.9-2-2-2zm-.4 4.25-7.07 4.42c-.32.2-.74.2-1.06 0L4.4 8.25a.85.85 0 1 1 .9-1.44L12 11l6.7-4.19a.85.85 0 1 1 .9 1.44z"/>
</symbol>
<symbol id="logo-text" viewBox="0 0 62 22"><g style="font-style:normal;font-weight:400;font-size:18.66666603px;line-height:1.25;font-family:sans-serif;letter-spacing:0;word-spacing:0;fill:#000;fill-opacity:1;stroke:none"><path style="font-style:normal;font-variant:normal;font-weight:700;font-stretch:normal;font-size:16px;line-height:1;font-family:sans-serif;-inkscape-font-specification:&apos;sans-serif Bold&apos;" d="M50.444 12.301V6.958h2.812v.875q0 .71-.007 1.789-.008 1.07-.008 1.43 0 1.054.054 1.523.055.46.188.672.172.273.445.422.282.148.64.148.876 0 1.376-.672.5-.672.5-1.867v-4.32h2.797v8.75h-2.797v-1.266q-.633.766-1.344 1.133-.703.36-1.555.36-1.515 0-2.312-.93-.79-.93-.79-2.704zm-1.297-2.96q-.367-.172-.734-.25-.36-.086-.727-.086-1.078 0-1.664.695-.578.687-.578 1.976v4.032h-2.797v-8.75h2.797v1.437q.539-.86 1.234-1.25.703-.398 1.68-.398.14 0 .305.015.164.008.476.047zm-12.29 3.343h2.813v3.024h-2.812zM26.343 6.958h2.797l2.18 6.047 2.172-6.047h2.804l-3.445 8.75h-3.07zM24.85 10.38v5.328h-2.812V11.63q0-1.133-.055-1.563-.047-.43-.172-.633-.164-.273-.445-.422-.282-.156-.64-.156-.876 0-1.376.68-.5.672-.5 1.867v4.305h-2.797v-8.75h2.797v1.281q.633-.766 1.344-1.125.71-.367 1.57-.367 1.516 0 2.297.93.79.93.79 2.703zM10.57 6.958h2.797v8.75h-2.797zm0-3.407h2.797v2.282h-2.797Zm-5.828.493h3.008v10.53q0 2.18-1.188 3.259-1.18 1.078-3.578 1.078h-.61v-2.274h.47q.937 0 1.413-.523.485-.523.485-1.54z" aria-label="Jinv.ru"/></g>
</symbol>
<symbol id="logo" viewBox="0 0 40 40"><ellipse cx="20.046" cy="20.023" rx="18.425" ry="18.448" style="fill:none;fill-opacity:0;stroke:#639;stroke-width:3.09748769;stroke-miterlimit:4;stroke-dasharray:none;stroke-opacity:1"/><g style="font-style:normal;font-weight:400;font-size:37.91882324px;line-height:1.25;font-family:sans-serif;letter-spacing:0;word-spacing:0;fill:#639;fill-opacity:1;stroke:none;stroke-width:2.03136539"><path d="M16.338 3.768h3.74v25.717q0 5-1.907 7.258-1.889 2.259-6.092 2.259h-1.426v-3.148h1.167q2.48 0 3.5-1.388 1.018-1.389 1.018-4.98z" style="stroke-width:2.03136539" transform="scale(1.12035 .89257)" aria-label="J"/></g>
</symbol>
<symbol id="phone"><rect width="50" height="50" rx="25" fill="url(#a)"/><g clip-path="url(#b)" filter="url(#c)" fill="#000"><path d="M33.675 23.652c.027-3.243-2.735-6.216-6.157-6.627-.068-.008-.142-.02-.22-.033a3.199 3.199 0 0 0-.522-.057c-.701 0-.889.493-.938.786-.048.286-.003.526.136.714.232.316.64.372.969.417.096.013.187.025.263.042 3.075.688 4.11 1.768 4.616 4.816.012.075.018.167.024.264.022.364.068 1.123.883 1.123.068 0 .14-.006.217-.018.759-.115.735-.808.724-1.141-.004-.094-.007-.183.001-.242a.336.336 0 0 0 .004-.044Z"/><path d="M26.577 15.835c.091.006.177.013.249.024 5.05.776 7.371 3.168 8.015 8.257.01.087.012.192.014.304.007.397.02 1.225.908 1.242h.028c.278 0 .5-.084.658-.25.277-.29.258-.719.242-1.064-.004-.085-.008-.165-.007-.234.065-5.205-4.44-9.924-9.64-10.1-.022 0-.042 0-.063.004a.431.431 0 0 1-.062.003c-.052 0-.115-.004-.183-.009-.082-.006-.174-.012-.268-.012-.828 0-.986.589-1.006.94-.046.81.738.867 1.115.895ZM34.597 30.693a15.918 15.918 0 0 1-.322-.25c-.551-.444-1.138-.853-1.705-1.249l-.353-.246c-.726-.51-1.38-.758-1.997-.758-.831 0-1.556.459-2.154 1.365-.265.401-.586.596-.982.596-.235 0-.501-.067-.792-.198-2.345-1.064-4.02-2.694-4.977-4.847-.463-1.04-.313-1.72.502-2.274.462-.314 1.323-.898 1.262-2.018-.069-1.27-2.873-5.096-4.055-5.53a2.302 2.302 0 0 0-1.566-.004c-1.358.456-2.333 1.258-2.82 2.319-.469 1.025-.448 2.228.062 3.48 1.474 3.619 3.547 6.774 6.16 9.378 2.559 2.549 5.703 4.636 9.346 6.205.329.141.673.218.924.275.086.019.16.035.214.05a.36.36 0 0 0 .09.013h.03c1.713 0 3.77-1.566 4.403-3.35.553-1.564-.458-2.336-1.27-2.957ZM27.335 19.969c-.294.007-.904.022-1.118.644-.1.29-.088.543.036.75.181.304.53.397.847.448 1.15.184 1.74.82 1.857 2 .055.55.426.934.901.934a.877.877 0 0 0 .107-.006c.573-.068.85-.489.825-1.25.009-.793-.407-1.695-1.113-2.413-.71-.72-1.564-1.126-2.342-1.107Z"/></g><defs><linearGradient id="a" x1="1.818" y1="7.042" x2="54.987" y2="12.91" gradientUnits="userSpaceOnUse"><stop stop-color="#FACD58"/><stop offset="1" stop-color="#EFBC3F"/></linearGradient><clipPath id="b"><path fill="#fff" transform="translate(14 14)" d="M0 0h23v23H0z"/></clipPath><filter id="c" x="7" y="11" width="37" height="37" filterUnits="userSpaceOnUse" color-interpolation-filters="sRGB"><feFlood flood-opacity="0" result="BackgroundImageFix"/><feColorMatrix in="SourceAlpha" values="0 0 0 0 0 0 0 0 0 0 0 0 0 0 0 0 0 0 127 0"/><feOffset dy="4"/><feGaussianBlur stdDeviation="3.5"/><feColorMatrix values="0 0 0 0 0.933333 0 0 0 0 0.186667 0 0 0 0 0.353519 0 0 0 0.15 0"/><feBlend in2="BackgroundImageFix" result="effect1_dropShadow"/><feBlend in="SourceGraphic" in2="effect1_dropShadow" result="shape"/></filter></defs>
</symbol>
<symbol id="phone2" viewBox="0 0 24 24"><path fill="none" d="M0 0h24v24H0V0z"/><path d="m19.23 15.26-2.54-.29a1.99 1.99 0 0 0-1.64.57l-1.84 1.84a15.045 15.045 0 0 1-6.59-6.59l1.85-1.85c.43-.43.64-1.03.57-1.64l-.29-2.52a2.001 2.001 0 0 0-1.99-1.77H5.03c-1.13 0-2.07.94-2 2.07.53 8.54 7.36 15.36 15.89 15.89 1.13.07 2.07-.87 2.07-2v-1.73c.01-1.01-.75-1.86-1.76-1.98z"/>
</symbol>
<symbol id="telegram" viewBox="0 0 32 32"><path d="m29.919 6.163-4.225 19.925c-.319 1.406-1.15 1.756-2.331 1.094l-6.438-4.744-3.106 2.988c-.344.344-.631.631-1.294.631l.463-6.556L24.919 8.72c.519-.462-.113-.719-.806-.256l-14.75 9.288-6.35-1.988c-1.381-.431-1.406-1.381.288-2.044l24.837-9.569c1.15-.431 2.156.256 1.781 2.013z"/>
</symbol>
<symbol id="telegram2" viewBox="0 0 240 240"><linearGradient id="a" gradientUnits="userSpaceOnUse" x1="-683.305" y1="534.845" x2="-693.305" y2="511.512" gradientTransform="matrix(6 0 0 -6 4255 3247)"><stop offset="0" stop-color="#37aee2"/><stop offset="1" stop-color="#1e96c8"/></linearGradient><path d="M240 120c0 66.3-53.7 120-120 120S0 186.3 0 120 53.7 0 120 0s120 53.7 120 120z" style="fill:url(#a)"/><path d="M98 175c-3.9 0-3.2-1.5-4.6-5.2L82 132.2 152.8 88l8.3 2.2-6.9 18.8L98 175z" style="fill:#c8daea"/><path d="M98 175c3 0 4.3-1.4 6-3 2.6-2.5 36-35 36-35l-20.5-5-19 12-2.5 30v1z" style="fill:#a9c9dd"/><linearGradient id="b" gradientUnits="userSpaceOnUse" x1="128.991" y1="118.245" x2="153.991" y2="78.245" gradientTransform="matrix(1 0 0 -1 0 242)"><stop offset="0" stop-color="#eff7fc"/><stop offset="1" stop-color="#fff"/></linearGradient><path d="m100 144.4 48.4 35.7c5.5 3 9.5 1.5 10.9-5.1L179 82.2c2-8.1-3.1-11.7-8.4-9.3L55 117.5c-7.9 3.2-7.8 7.6-1.4 9.5l29.7 9.3L152 93c3.2-2 6.2-.9 3.8 1.3L100 144.4z" style="fill:url(#b)"/>
</symbol>
<symbol id="telegram3" viewBox="0 0 512 512"><rect width="512" height="512" rx="15%" fill="#37aee2"/><path fill="#c8daea" d="M199 404c-11 0-10-4-13-14l-32-105 245-144"/><path fill="#a9c9dd" d="M199 404c7 0 11-4 16-8l45-43-56-34"/><path fill="#f6fbfe" d="m204 319 135 99c14 9 26 4 30-14l55-258c5-22-9-32-24-25L79 245c-21 8-21 21-4 26l83 26 190-121c9-5 17-3 11 4"/>
</symbol>
<symbol id="vk" viewBox="0 0 24 14"><path style="fill:#4b729f" d="M19.915 8.028c-.388-.49-.277-.708 0-1.146.005-.005 3.208-4.431 3.538-5.932l.002-.001c.164-.547 0-.949-.793-.949h-2.624c-.668 0-.976.345-1.141.731 0 0-1.336 3.198-3.226 5.271-.61.599-.892.791-1.225.791-.164 0-.419-.192-.419-.739V.949c0-.656-.187-.949-.74-.949H9.161c-.419 0-.668.306-.668.591 0 .622.945.765 1.043 2.515v3.797c0 .832-.151.985-.486.985-.892 0-3.057-3.211-4.34-6.886C4.451.289 4.198.001 3.525.001H.9c-.749 0-.9.345-.9.731 0 .682.892 4.073 4.148 8.553C6.318 12.343 9.374 14 12.154 14c1.671 0 1.875-.368 1.875-1.001 0-2.922-.151-3.198.686-3.198.388 0 1.056.192 2.616 1.667C19.114 13.217 19.407 14 20.405 14h2.624c.748 0 1.127-.368.909-1.094-.499-1.527-3.871-4.668-4.023-4.878z"/>
</symbol>
<symbol id="whatsapp" viewBox="0 0 24 24"><g fill="none"><path d="M0 0h24v24H0z"/><path d="M0 0h24v24H0z"/></g><path d="M19.05 4.91A9.816 9.816 0 0 0 12.04 2c-5.46 0-9.91 4.45-9.91 9.91 0 1.75.46 3.45 1.32 4.95L2.05 22l5.25-1.38c1.45.79 3.08 1.21 4.74 1.21 5.46 0 9.91-4.45 9.91-9.91 0-2.65-1.03-5.14-2.9-7.01zm-7.01 15.24c-1.48 0-2.93-.4-4.2-1.15l-.3-.18-3.12.82.83-3.04-.2-.31a8.264 8.264 0 0 1-1.26-4.38c0-4.54 3.7-8.24 8.24-8.24 2.2 0 4.27.86 5.82 2.42a8.183 8.183 0 0 1 2.41 5.83c.02 4.54-3.68 8.23-8.22 8.23zm4.52-6.16c-.25-.12-1.47-.72-1.69-.81-.23-.08-.39-.12-.56.12-.17.25-.64.81-.78.97-.14.17-.29.19-.54.06-.25-.12-1.05-.39-1.99-1.23-.74-.66-1.23-1.47-1.38-1.72-.14-.25-.02-.38.11-.51.11-.11.25-.29.37-.43s.17-.25.25-.41c.08-.17.04-.31-.02-.43s-.56-1.34-.76-1.84c-.2-.48-.41-.42-.56-.43h-.48c-.17 0-.43.06-.66.31-.22.25-.86.85-.86 2.07 0 1.22.89 2.4 1.01 2.56.12.17 1.75 2.67 4.23 3.74.59.26 1.05.41 1.41.52.59.19 1.13.16 1.56.1.48-.07 1.47-.6 1.67-1.18.21-.58.21-1.07.14-1.18s-.22-.16-.47-.28z"/>
</symbol></svg>